<?xml version="1.0" encoding="utf-8"?>
<!-- Generator: Adobe Illustrator 24.0.1, SVG Export Plug-In . SVG Version: 6.00 Build 0)  -->
<svg version="1.1" id="图层_1" xmlns="http://www.w3.org/2000/svg" xmlns:xlink="http://www.w3.org/1999/xlink" x="0px" y="0px"
	 viewBox="0 0 512 512" style="enable-background:new 0 0 512 512;" xml:space="preserve">
<style type="text/css">
	.st0{fill:#ffffff;stroke-miterlimit:10;}
</style>
<path class="st0" d="M0,338.41c36.09-44.55,73.17-88.3,107.08-134.57c-0.22-0.25-0.44-0.5-0.67-0.74c-1.67,1.22-3.52,2.27-5,3.69
	C89.27,218.5,77.2,230.3,65.07,242.03c-3.3,3.19-6.76,6.23-10.14,9.34c-0.17-0.14-0.34-0.28-0.51-0.41
	c13.39-18.71,26.78-37.43,40.17-56.14c-0.22-0.21-0.43-0.42-0.65-0.63c-3.51,2.64-7.01,5.28-10.52,7.92
	c-0.09-0.09-0.17-0.17-0.26-0.26c0.44-0.5,0.86-1.03,1.34-1.5c8.94-8.95,17.72-18.07,26.88-26.78c8.44-8.02,17.52-15.3,28.11-20.43
	c1.98-0.96,4.02-1.77,6.03-2.65c-0.11-0.37-0.22-0.74-0.33-1.11c-3.18,0.6-6.44,0.91-9.51,1.86c-9.51,2.96-18.26,7.54-26.09,13.69
	c-7.79,6.13-15.47,12.4-22.98,18.86c-6.33,5.44-12.32,11.28-18.52,16.86c-3.57,3.21-7.28,6.26-10.93,9.39
	c-0.21-0.19-0.43-0.37-0.64-0.56c2.29-3.26,4.44-6.64,6.89-9.77c6.16-7.85,12.32-15.72,18.76-23.34c5.28-6.24,10.89-12.2,16.5-18.15
	c5.94-6.29,11.81-12.68,18.13-18.57c7.33-6.83,14.9-13.45,22.77-19.64c10.3-8.1,21.6-14.66,33.28-20.65
	c12.61-6.47,25.72-11.53,39.49-14.7c6.25-1.44,12.71-2,19.11-2.73c3.65-0.42,7.36-0.62,11.03-0.52c15.35,0.4,29.82,4,42.83,12.49
	c7.46,4.87,13.53,11.15,16.73,19.51c3.03,7.92,3.95,16.24,2.86,24.81c-0.84,6.57-2.68,12.68-5.72,18.53
	c-4.33,8.34-10.66,14.63-18.8,19.21c-9.6,5.41-18.93,11.2-27.04,18.74c-0.45,0.42-0.96,0.79-1.29,1.06
	c4.36,1.08,8.75,1.86,12.92,3.27c9.14,3.1,13.89,10.1,15.94,19.17c2.31,10.24,0.69,20.34-1.74,30.28
	c-1.68,6.86-3.6,13.75-6.29,20.26c-4.21,10.2-8.83,20.26-13.91,30.05c-4.31,8.29-9.21,16.33-14.41,24.1
	c-7.1,10.61-14.73,20.88-22.16,31.27c-4.31,6.03-8.66,12.02-13.01,18.02c-0.87,1.19-1.8,2.33-2.71,3.5c0.2,0.24,0.41,0.48,0.61,0.72
	c64.05-39.42,128.1-78.84,192.15-118.26c0.17,0.11,0.35,0.23,0.52,0.34c-0.64,1.83-1.46,3.62-1.88,5.51
	c-1.88,8.41,0.26,16.02,5.21,22.84c8.28,11.43,19.41,19.67,31.48,26.57c9.5,5.43,19.26,10.48,29.19,15.07
	c9.93,4.58,20.19,8.45,30.36,12.49c5.84,2.32,11.78,4.36,17.68,6.53c-0.04,0.25-0.09,0.5-0.13,0.74c-1.21-0.17-2.42-0.44-3.64-0.5
	c-4.28-0.22-8.57-0.44-12.85-0.52c-11.62-0.22-23.25-0.41-34.87-0.52c-8.64-0.08-17.29-0.15-25.94,0.03
	c-6.67,0.13-13.34,0.58-20,1.01c-6.73,0.44-13.46,0.84-20.16,1.59c-9.19,1.03-18.35,2.26-27.5,3.6c-8.37,1.23-16.78,2.33-25.01,4.22
	c-12.81,2.94-25.62,6.01-38.16,9.91c-13.78,4.29-27.12,9.87-39.75,17.01c-9.33,5.28-18.8,10.34-28.07,15.73
	c-8.11,4.71-16.02,9.76-24.03,14.63c-6.31,3.84-11.76,8.67-17.05,13.79c-3.01,2.92-6.65,5.25-10.23,7.49
	c-2.71,1.7-5.67,3.14-8.69,4.16c-4.79,1.62-9.33-0.08-13.78-1.83c-5.42-2.14-9.94-5.62-14.15-9.54
	c-5.83-5.44-11.37-11.19-15.72-17.89c-2.64-4.07-4.6-8.6-6.91-12.89c-0.64-1.18-0.31-1.69,0.79-2.43
	c7.13-4.77,12.53-11.3,17.43-18.17c6.47-9.08,13.04-18.16,18.66-27.77c6.9-11.81,12.91-24.15,19.2-36.31
	c2.47-4.77,5.01-9.56,6.9-14.57c4.63-12.29,9.17-24.63,13.22-37.12c2.39-7.36,4.22-14.96,5.49-22.59
	c1.76-10.61,2.61-21.32-1.24-31.8c-2.95-8.03-10.06-12.78-18.4-13.16c-9.36-0.43-17.87,2.69-26.21,6.29
	c-13.3,5.74-25.76,13.04-37.68,21.23c-7.91,5.43-15.62,11.17-23.2,17.06c-12.76,9.92-23.8,21.7-35.13,33.15
	c-6.78,6.85-13.32,13.94-19.94,20.94c-10.22,10.8-20.41,21.64-30.66,32.42c-4.27,4.49-8.66,8.88-13.01,13.3
	c-0.31,0.32-0.77,0.49-1.16,0.73C0.28,338.74,0.14,338.58,0,338.41z"/>
<path class="st0" d="M271.04,322.51c13.75-14.84,27.36-29.63,39.27-45.9c11.77-16.08,20.07-34.14,29.04-51.78c11.54,6.49,23.04,5.33,34.96,2.17
	c-5.96-7.25-8.82-15.59-10.31-24.27c-1.55-9.03-1.9-18.23-0.69-27.38c1.16-8.74,2.09-17.52,3.72-26.17
	c1.52-8.11,3.82-16.08,5.76-24.11c0.25-1.04,0.4-2.1,0.65-3.45c-8.96,11.48-17.7,22.69-26.44,33.9c-0.31-0.14-0.63-0.27-0.94-0.41
	c0.22-2.23,0.57-4.46,0.65-6.7c0.39-11.14-0.14-22.26-3.73-32.86c-4.28-12.64-11.44-23.35-22.69-31.12
	c-8.41-5.81-17.68-9.05-27.6-10.82c-1.71-0.31-3.4-0.71-5.11-1.07c0.02-0.33,0.04-0.67,0.06-1c6.91,0,13.83,0,20.74,0
	c6.32,0,12.63-0.11,18.95,0.02c10.31,0.22,20.48,1.49,30.63,3.43c9.71,1.86,19.01,4.73,27.73,9.34c8.08,4.27,14.84,10.09,20.2,17.57
	c7.07,9.87,10.78,20.99,12.3,32.87c0.84,6.59,1.3,13.25,1.55,19.89c0.26,6.83,0.32,13.69-0.02,20.51
	c-0.34,6.79-1.28,13.55-1.97,20.32c-0.51,4.99-1.02,9.98-1.59,14.97c-0.48,4.22-0.67,8.52-1.72,12.59
	c-0.48,1.86-2.51,3.54-4.21,4.81c-5.83,4.35-11.78,8.54-17.75,12.69c-7.04,4.89-14.15,9.68-21.22,14.52
	c-9.28,6.35-18.55,12.71-27.85,19.04c-9.64,6.56-19.29,13.12-28.96,19.64c-11.08,7.46-22.17,14.9-33.29,22.3
	C277.82,318.25,274.41,320.35,271.04,322.51z"/>
</svg>
